<?xml version="1.0" encoding="utf-8"?><!DOCTYPE svg  PUBLIC '-//W3C//DTD SVG 1.1//EN'  'http://www.w3.org/Graphics/SVG/1.1/DTD/svg11.dtd'><svg enable_background="new 0 0 800 801" height="801px" pretty_print="False" style="stroke-linejoin: round; stroke:#000; fill: none;" version="1.1" viewBox="0 0 800 801" width="800px" xmlns="http://www.w3.org/2000/svg" xmlns:xlink="http://www.w3.org/1999/xlink"><defs><style type="text/css"><![CDATA[path { fill-rule: evenodd; }]]></style></defs><metadata><views><view h="801" padding="0" w="800"><proj flip="auto" id="robinson" lon0="28.5070763658"/><bbox h="4.98" w="4.47" x="412.9" y="334.7"/></view></views></metadata><g class="" id="bulawayo"><path d="M405.024149,518.754030L370.946923,523.109764L353.642605,525.101746L349.088088,528.008257L340.896220,532.619859L332.641678,537.999415L320.514693,550.996520L303.795785,554.148557L280.258922,566.851377L280.149329,567.086284L255.692276,616.514929L283.172915,614.859539L300.091071,612.473553L322.076972,633.432618L329.096431,643.158819L332.911242,634.124356L344.908997,632.592494L350.301692,628.740120L354.466594,617.242130L360.124066,609.376101L346.383962,597.298215L352.441183,586.423497L361.114620,577.867828L354.481349,569.349095L351.960069,565.755600L386.128147,556.621983L402.540810,550.644162L406.414226,546.764878L406.345459,543.560590L406.291184,543.245930L406.605335,540.118952L412.691690,518.835449L413.787146,516.678508L405.024149,518.754030Z " data-constituency="Nkulumane" data-province="Bulawayo"/><path d="M441.785266,469.700584L433.639449,468.773825L420.668178,466.539552L406.997069,464.204591L404.953680,463.890164L403.167234,467.631790L391.017221,480.222252L383.711449,477.533523L370.839994,479.958464L357.700987,492.625757L348.331939,497.750726L343.374963,498.033981L342.432887,499.559425L343.125681,513.620086L341.553101,528.321558L340.896220,532.619859L349.088088,528.008257L353.642605,525.101746L370.946923,523.109764L405.024149,518.754030L413.787146,516.678508L419.200661,509.947683L446.620740,477.444930L449.028557,473.589843L449.392147,468.271042L441.785266,469.700584Z " data-constituency="Pelandaba-Mpopoma" data-province="Bulawayo"/><path d="M548.251155,723.883939L566.294915,723.611191L566.344098,726.634366L591.696590,727.446448L592.055891,723.438283L617.544120,721.605193L624.692622,712.293847L647.167151,712.788280L673.896595,739.131442L680.260023,730.808306L679.852876,709.762094L678.076125,702.181633L698.751029,694.659584L703.806341,683.302482L730.907832,679.248822L742.986012,662.786357L749.376767,646.780447L757.756566,647.919023L758.400007,617.037379L730.523854,605.172105L710.754331,592.808625L708.077711,587.444527L714.487999,577.649547L699.483727,566.897339L708.939266,560.280942L709.897088,554.059747L697.595472,558.035279L685.577103,542.653946L657.209343,514.768097L658.509588,511.649233L720.605360,410.947193L717.930415,407.779044L703.118402,408.729954L680.497592,403.653434L664.403504,409.958422L661.603913,408.087681L677.756386,372.691104L677.008336,343.653303L685.947229,342.782070L690.022729,332.172703L687.757990,329.873864L705.810560,285.316721L693.014707,286.042958L677.699014,286.654521L653.358084,346.652411L653.659209,353.546311L636.749687,351.141262L628.981970,369.449902L621.229874,383.225272L614.429533,374.867856L601.775015,372.224318L607.458944,358.369528L595.407118,344.160375L587.390326,358.108443L583.192131,372.547693L572.805857,381.385033L554.216440,419.957419L540.777382,451.148715L527.991344,473.922652L519.859059,474.479538L513.454145,495.972298L522.167029,500.968165L519.321448,520.591740L549.852466,529.586576L555.328547,529.306754L542.135860,576.128120L533.298661,588.452092L516.669806,584.204034L542.221015,638.884784L540.677120,674.031212L542.861454,679.996172L541.558823,715.041276L548.251155,723.883939Z " data-constituency="Bulawayo East" data-province="Bulawayo"/><path d="M382.845124,386.737646L359.779522,368.448442L353.778338,413.880251L351.067777,416.478759L355.382842,423.845738L354.934336,428.357072L360.393863,428.668308L368.317490,432.457513L388.649635,449.891916L401.681562,460.918087L404.953680,463.890164L406.997069,464.204591L420.668178,466.539552L433.639449,468.773825L441.785266,469.700584L449.392147,468.271042L449.186829,465.814550L447.078880,460.766271L437.297051,450.039660L422.929869,417.544868L420.083984,415.088890L416.765930,412.551975L400.599757,399.937289L396.883900,397.203849L384.848088,388.194870L382.845124,386.737646Z " data-constituency="Emakhandeni-Entumbane" data-province="Bulawayo"/><path d="M384.848088,388.194870L396.883900,397.203849L400.599757,399.937289L416.765930,412.551975L420.083984,415.088890L425.486804,416.833521L473.289486,430.517293L499.961231,432.984193L496.850617,467.407584L497.975361,477.653550L487.446087,495.320899L477.396593,519.559232L480.222598,537.264739L484.368116,541.912577L487.498755,544.319166L492.669023,545.825390L492.234567,563.645116L486.855381,577.282538L479.549926,572.302069L466.587994,587.035291L458.165125,590.889312L473.947017,623.103039L474.347375,627.460914L467.220228,660.253994L470.883471,664.355814L464.201018,677.903424L455.415457,709.578234L476.184826,715.532136L541.558823,715.041276L542.861454,679.996172L540.677120,674.031212L542.221015,638.884784L516.669806,584.204034L533.298661,588.452092L542.135860,576.128120L555.328547,529.306754L549.852466,529.586576L519.321448,520.591740L522.167029,500.968165L513.454145,495.972298L519.859059,474.479538L527.991344,473.922652L540.777382,451.148715L554.216440,419.957419L572.805857,381.385033L583.192131,372.547693L587.390326,358.108443L595.407118,344.160375L607.458944,358.369528L601.775015,372.224318L614.429533,374.867856L621.229874,383.225272L628.981970,369.449902L636.749687,351.141262L653.659209,353.546311L653.358084,346.652411L677.699014,286.654521L661.440407,287.303021L648.903430,288.127720L657.719190,269.489027L664.727749,259.814805L667.606735,235.648925L696.027022,178.737904L710.959653,168.184572L719.254021,147.401385L687.488089,131.561645L656.302735,114.735896L647.640834,103.521056L576.323288,0.000000L525.264942,102.957922L490.685808,175.364029L486.341209,181.599413L443.040526,222.757593L440.616351,255.467864L425.609315,236.159698L427.960397,223.019548L414.026191,214.004937L408.340413,199.836045L402.918607,199.756132L390.028083,185.478385L346.334464,219.081562L345.374584,262.778168L345.369784,262.822783L390.419601,334.403545L401.047338,326.559707L401.217573,360.947235L392.054041,379.724865L382.845124,386.737646L384.848088,388.194870Z " data-constituency="Bulawayo Central" data-province="Bulawayo"/><path d="M422.929869,417.544868L437.297051,450.039660L447.078880,460.766271L449.186829,465.814550L449.392147,468.271042L449.028557,473.589843L446.620740,477.444930L419.200661,509.947683L413.787146,516.678508L412.691690,518.835449L406.605335,540.118952L406.291184,543.245930L406.345459,543.560590L406.414226,546.764878L406.483258,549.981374L414.639438,562.452726L425.992939,563.355300L431.186579,559.292053L453.522410,574.779750L464.345468,563.641681L469.873395,553.029331L482.928773,544.510239L484.368116,541.912577L480.222598,537.264739L477.396593,519.559232L487.446087,495.320899L497.975361,477.653550L496.850617,467.407584L499.961231,432.984193L473.289486,430.517293L425.486804,416.833521L420.083984,415.088890L422.929869,417.544868Z " data-constituency="Makokoba" data-province="Bulawayo"/><path d="M331.771766,435.919001L321.943017,435.802376L319.539703,435.826029L309.848463,430.820459L297.903220,417.433120L293.583900,411.677534L288.690424,417.521523L274.660140,434.174337L273.639476,439.742089L282.293061,461.242964L293.914342,472.118613L287.794206,483.981778L313.636495,488.616417L322.957056,497.095090L342.151314,498.556490L343.374963,498.033981L345.841659,490.349565L343.603433,489.271799L333.706723,471.523637L331.627921,442.544492L331.771766,435.919001Z " data-constituency="Magwegwe" data-province="Bulawayo"/><path d="M361.114620,577.867828L352.441183,586.423497L346.383962,597.298215L360.124066,609.376101L354.466594,617.242130L350.301692,628.740120L344.908997,632.592494L332.911242,634.124356L329.096431,643.158819L329.669850,643.160972L318.679223,669.490830L305.696231,696.903117L297.925390,714.696611L290.540151,730.714499L335.213111,719.996543L350.056782,704.966432L378.744857,672.457945L389.157375,663.984426L393.357797,642.160667L405.651608,631.695973L404.654220,625.065024L387.270422,612.738230L364.543736,582.719538L361.114620,577.867828Z " data-constituency="Nketa" data-province="Bulawayo"/><path d="M240.670823,293.319027L219.560171,251.814858L206.816827,232.094508L190.715044,212.786229L157.740984,184.685926L132.693603,173.574755L110.287648,422.015027L84.536466,422.806149L65.381580,465.404320L109.248892,459.762829L136.635738,516.571604L41.599993,517.307381L63.878171,561.193223L167.513785,581.422280L159.779117,556.728929L155.574026,552.883299L158.198478,540.511048L142.404508,533.339675L144.002500,527.635579L282.364530,562.594287L280.258922,566.851377L303.795785,554.148557L320.514693,550.996520L332.641678,537.999415L340.896220,532.619859L341.553101,528.321558L343.125681,513.620086L342.432887,499.559425L343.374963,498.033981L342.151314,498.556490L322.957056,497.095090L313.636495,488.616417L287.794206,483.981778L293.914342,472.118613L282.293061,461.242964L273.639476,439.742089L274.660140,434.174337L288.690424,417.521523L293.583900,411.677534L276.642214,387.140891L260.122720,364.451013L288.171899,336.320265L247.430479,304.253334L240.672280,293.318601L240.670823,293.319027Z " data-constituency="Pumula" data-province="Bulawayo"/><path d="M293.583900,411.677534L297.903220,417.433120L309.848463,430.820459L319.539703,435.826029L321.943017,435.802376L331.771766,435.919001L338.727238,435.841420L341.137318,434.762646L342.263064,434.096720L347.354219,431.913627L354.934336,428.357072L355.382842,423.845738L351.067777,416.478759L353.778338,413.880251L359.779522,368.448442L382.845124,386.737646L392.054041,379.724865L401.217573,360.947235L401.047338,326.559707L390.419601,334.403545L345.369784,262.822783L315.580475,271.423468L240.672280,293.318601L247.430479,304.253334L288.171899,336.320265L260.122720,364.451013L276.642214,387.140891L293.583900,411.677534Z " data-constituency="Luveve" data-province="Bulawayo"/><path d="M331.627921,442.544492L333.706723,471.523637L343.603433,489.271799L345.841659,490.349565L343.374963,498.033981L348.331939,497.750726L357.700987,492.625757L370.839994,479.958464L383.711449,477.533523L391.017221,480.222252L403.167234,467.631790L404.953680,463.890164L401.681562,460.918087L388.649635,449.891916L368.317490,432.457513L360.393863,428.668308L354.934336,428.357072L347.354219,431.913627L342.263064,434.096720L341.137318,434.762646L338.727238,435.841420L331.771766,435.919001L331.627921,442.544492Z " data-constituency="Lobengula" data-province="Bulawayo"/><path d="M402.540810,550.644162L386.128147,556.621983L351.960069,565.755600L354.481349,569.349095L361.114620,577.867828L364.543736,582.719538L387.270422,612.738230L404.654220,625.065024L405.651608,631.695973L393.357797,642.160667L389.157375,663.984426L378.744857,672.457945L350.056782,704.966432L335.213111,719.996543L290.540151,730.714499L286.762600,736.421041L286.745482,737.015136L382.803707,799.000000L419.259399,700.408298L455.415457,709.578234L464.201018,677.903424L470.883471,664.355814L467.220228,660.253994L474.347375,627.460914L473.947017,623.103039L458.165125,590.889312L466.587994,587.035291L479.549926,572.302069L486.855381,577.282538L492.234567,563.645116L492.669023,545.825390L487.498755,544.319166L484.368116,541.912577L482.928773,544.510239L469.873395,553.029331L464.345468,563.641681L453.522410,574.779750L431.186579,559.292053L425.992939,563.355300L414.639438,562.452726L406.483258,549.981374L406.414226,546.764878L402.540810,550.644162Z " data-constituency="Bulawayo South" data-province="Bulawayo"/></g></svg>