<?xml version="1.0" encoding="utf-8"?><!DOCTYPE svg  PUBLIC '-//W3C//DTD SVG 1.1//EN'  'http://www.w3.org/Graphics/SVG/1.1/DTD/svg11.dtd'><svg enable background="new 0 0 800 801" height="801px" pretty print="False" style="stroke-linejoin: round; stroke:#000; fill: none;" version="1.1" viewBox="0 0 800 801" width="800px" xmlns="http://www.w3.org/2000/svg" xmlns:xlink="http://www.w3.org/1999/xlink"><defs><style type="text/css"><![CDATA[path { fill-rule: evenodd; }]]></style></defs><metadata><views><view h="801" padding="0" w="800"><proj flip="auto" id="robinson" lon0="31.0145536645"/><bbox h="6.46" w="5.05" x="450.84" y="296.2"/></view></views></metadata><g class="" id="harare"><path d="M424.107051,681.825872L409.095994,706.418546L396.857401,740.809510L408.148743,750.784758L409.419987,752.864664L410.667350,750.988159L425.176995,749.966366L442.119203,738.870603L443.745494,730.390540L461.720610,710.095582L458.060144,707.825915L459.793587,698.445680L454.555974,697.486944L433.208690,693.578385L430.805765,693.138326L424.107051,681.825872Z " data-constituency="Zengeza East" data-province="Harare"/><path d="M237.568453,500.813451L234.751608,498.813205L228.075498,500.939463L227.912955,503.345569L226.821177,505.284009L229.503251,508.760312L222.114751,519.217708L227.441547,525.896055L221.850830,532.692854L232.172378,540.611172L235.888054,541.013477L245.698257,529.709285L245.926527,530.208726L248.675447,526.866728L268.775616,529.094663L280.586446,517.973704L285.757194,509.454800L294.238691,502.917130L295.769072,500.773321L294.428608,500.235502L273.817447,487.439224L272.469897,488.170672L261.182260,488.404998L258.848912,495.527389L241.629188,497.823435L241.280787,498.079975L237.568453,500.813451Z " data-constituency="Glen Norah" data-province="Harare"/><path d="M191.478837,510.801759L176.629862,517.801692L171.678564,521.292477L186.045394,522.175825L189.082359,523.106666L215.786973,528.078942L221.850830,532.692854L227.441547,525.896055L222.114751,519.217708L229.503251,508.760312L226.821177,505.284009L225.285946,503.294131L219.030089,498.087145L203.657697,497.246996L201.126637,479.967454L200.698164,476.714826L193.521666,480.192118L191.548300,480.499291L191.553977,480.525660L173.848874,498.367861L191.478837,510.801759Z " data-constituency="Glenview South" data-province="Harare"/><path d="M229.603292,435.517536L229.617372,435.279053L228.937124,432.227326L225.112789,433.725851L205.354658,438.528378L188.530518,431.173528L159.537321,429.567509L154.121940,430.573481L123.562765,422.110260L121.616038,420.623318L91.607763,434.797438L88.007168,435.288652L173.166206,497.886364L173.848874,498.367861L191.553977,480.525660L191.548300,480.499291L193.521666,480.192118L200.698164,476.714826L214.108092,472.040581L221.157268,470.874568L229.412976,462.393904L235.317383,452.845922L234.342464,452.800415L231.290173,443.110756L230.727970,438.393595L229.603292,435.517536Z " data-constituency="Budiriro" data-province="Harare"/><path d="M674.978863,457.784268L665.229290,450.236170L658.661877,448.272261L589.256159,427.800107L545.578552,414.292130L534.364069,427.588693L530.081589,430.864745L526.423662,431.488913L521.148865,448.845158L533.802319,461.252958L564.930266,490.664102L564.237735,493.179234L563.048267,497.499036L550.222074,546.034912L552.105835,545.980428L603.933784,544.476849L599.593982,534.418920L613.459800,528.866324L616.466774,521.182153L619.857924,501.745339L648.019568,517.014736L665.265453,479.534494L665.299358,464.860223L673.125111,458.562247L674.978863,457.784268Z " data-constituency="Epworth" data-province="Harare"/><path d="M368.991804,152.661709L379.567881,205.427541L388.297373,233.573353L388.458639,242.520578L384.607867,243.249137L368.349228,232.130404L357.330813,228.787029L355.654243,250.805933L342.781278,272.632284L341.354455,274.684871L343.418829,275.148083L356.018000,279.069574L364.498512,281.479126L365.037315,294.966986L378.309848,294.004150L397.696419,289.612903L401.384243,309.685150L419.538848,304.720689L421.053859,314.045130L438.168160,307.275255L447.393673,299.400249L447.470662,299.106581L458.127390,261.828717L453.195044,247.888723L479.028297,225.100459L479.124661,225.057474L478.565514,210.953901L488.790991,208.138996L487.493709,190.868220L481.903057,187.054306L487.099462,179.047008L475.721474,175.329059L473.132846,151.805116L488.792943,140.624953L477.546956,135.993758L477.177194,123.437478L469.562816,118.191906L471.315682,131.090718L470.021178,134.477025L405.285252,154.837520L397.378487,138.658176L389.686228,148.938200L369.613962,127.613393L368.423582,150.916267L368.991804,152.661709Z " data-constituency="Mt Pleasant" data-province="Harare"/><path d="M235.317383,452.845922L229.412976,462.393904L221.157268,470.874568L214.108092,472.040581L200.698164,476.714826L201.126637,479.967454L203.657697,497.246996L219.030089,498.087145L225.285946,503.294131L226.821177,505.284009L227.912955,503.345569L228.075498,500.939463L234.751608,498.813205L237.568453,500.813451L241.280787,498.079975L240.700027,497.095952L251.345855,473.650853L243.064634,468.166990L235.488652,467.938787L235.450989,453.339478L235.317383,452.845922Z " data-constituency="Glenview North" data-province="Harare"/><path d="M344.490742,429.347462L344.366813,429.566090L359.881741,429.588609L384.971896,429.976533L385.185484,438.465370L416.322463,436.499374L420.706576,433.510556L420.897678,425.788432L425.844927,425.531268L416.397269,400.709138L412.801374,394.216172L406.858490,379.664957L404.837835,370.320197L402.171125,363.993749L399.224037,365.657842L393.743888,372.129237L393.000458,399.287623L386.446739,419.206476L376.808682,417.147692L371.826417,416.083305L370.652936,418.698466L361.925426,412.970297L357.499384,408.089098L343.840429,428.533510L344.490742,429.347462Z " data-constituency="Sunningdale" data-province="Harare"/><path d="M121.514788,373.170749L121.398176,372.253913L130.173551,372.183828L133.190086,372.289000L133.761971,366.965549L140.758514,354.133942L153.145510,352.401221L175.366088,353.135745L179.678255,342.761043L173.324524,317.101097L203.361711,314.320602L208.552681,317.888483L209.327966,318.146778L222.098838,320.325386L223.063930,320.279053L223.810202,315.461579L221.907279,293.451364L219.447396,281.802399L217.349644,272.481647L211.814445,265.916081L207.399272,283.068614L169.228684,311.759877L169.013287,315.815101L129.904542,317.822373L112.450026,321.974757L115.366335,333.553375L115.836373,339.178677L121.514788,373.170749Z " data-constituency="Kuwadzana" data-province="Harare"/><path d="M459.793587,698.445680L458.060144,707.825915L461.720610,710.095582L443.745494,730.390540L442.119203,738.870603L425.176995,749.966366L410.667350,750.988159L409.419987,752.864664L414.779406,762.262773L447.256834,748.671069L451.729174,743.374341L477.695313,735.275728L490.605540,751.394143L503.441930,739.724337L506.214276,733.367906L521.405973,739.127563L522.321914,738.312935L523.899595,736.420734L525.602490,734.424740L471.911604,700.663500L459.793587,698.445680Z " data-constituency="Chitungwiza North" data-province="Harare"/><path d="M677.270527,456.985925L691.170053,456.621286L685.654985,443.812181L695.077429,445.459879L667.451503,410.744725L662.846810,407.053152L665.254234,401.754407L707.947616,384.955752L711.992832,380.360874L709.933045,361.363051L705.282407,344.063639L705.342255,342.491015L692.414451,345.338088L682.359912,338.854620L668.115265,334.009547L667.928336,334.564699L667.897581,334.545367L656.252168,324.907080L648.863029,335.834499L638.818660,358.314519L618.569258,392.344102L548.824980,407.359452L543.802079,408.440198L533.345856,410.689720L545.073082,414.135765L545.583854,414.285844L545.578552,414.292130L589.256159,427.800107L658.661877,448.272261L665.229290,450.236170L674.978863,457.784268L677.270527,456.985925Z " data-constituency="Mabvuku-Tafara" data-province="Harare"/><path d="M383.256240,376.069359L386.304854,379.639110L373.345714,390.714100L379.612289,405.791675L378.018288,413.275782L376.808682,417.147692L386.446739,419.206476L393.000458,399.287623L393.743888,372.129237L399.224037,365.657842L402.171125,363.993749L399.982746,357.973050L398.280191,353.152176L394.679011,363.461640L385.260186,369.987627L380.823620,370.475677L383.256240,376.069359Z " data-constituency="Mbare" data-province="Harare"/><path d="M297.925161,692.284600L309.278389,689.314959L315.036773,694.743742L327.919704,700.533633L334.966644,698.762774L335.920503,685.741835L339.305332,680.053783L339.613086,677.605769L357.478710,661.921286L370.742360,662.240696L401.138708,650.566132L401.663939,648.853213L416.985092,652.227590L435.276686,660.156256L440.008383,659.180953L475.686937,665.760974L494.503076,672.662814L503.483726,680.482896L508.491029,674.363295L507.116389,656.335802L518.037955,635.872296L522.961962,631.295378L531.241551,616.462905L557.400789,608.517686L544.305919,590.875679L550.467238,589.399749L548.981211,582.178442L550.222074,546.034912L563.048267,497.499036L564.237735,493.179234L564.930266,490.664102L533.802319,461.252958L533.894492,461.343337L526.016884,461.787840L519.084987,469.421236L502.621216,462.417157L357.994929,500.988016L356.924715,502.763153L362.917709,530.361925L314.421335,552.853866L301.293537,527.395712L291.228542,527.045345L288.694482,532.707265L278.647837,526.152523L253.733201,540.436632L247.326822,533.272483L245.926527,530.208726L245.698257,529.709285L235.888054,541.013477L232.172378,540.611172L221.850830,532.692854L215.786973,528.078942L189.082359,523.106666L186.045394,522.175825L171.678564,521.292477L170.858459,521.185983L170.505140,521.939365L99.503142,561.635622L114.813732,592.710660L127.235198,605.215673L136.369151,600.697463L134.430579,619.199318L141.945452,610.029417L161.086795,610.780153L164.604371,614.940293L180.963007,623.889345L195.368500,634.357579L205.215376,633.962894L239.500891,657.535634L252.909878,648.515696L268.109686,670.311725L278.591724,666.834608L277.212263,675.052018L289.116583,688.573877L297.534174,688.673887L297.925161,692.284600Z " data-constituency="Harare South" data-province="Harare"/><path d="M203.361711,314.320602L173.324524,317.101097L179.678255,342.761043L175.366088,353.135745L153.145510,352.401221L140.758514,354.133942L133.761971,366.965549L133.190086,372.289000L138.118028,372.460748L166.191575,372.984739L173.411227,371.643056L182.382285,376.478589L178.805427,388.590370L174.039846,389.604669L164.962275,401.291420L165.054115,408.621536L170.697568,409.405702L172.617527,407.996936L171.682730,405.129975L172.511078,402.752021L189.544300,394.563100L213.315306,380.834967L215.074565,379.838451L214.809333,379.172610L206.916089,368.236221L211.251851,336.615279L208.710945,322.481343L208.552681,317.888483L203.361711,314.320602Z " data-constituency="Kuwadzana East" data-province="Harare"/><path d="M223.063930,320.279053L222.098838,320.325386L209.327966,318.146778L208.552681,317.888483L208.710945,322.481343L211.251851,336.615279L206.916089,368.236221L214.809333,379.172610L215.074565,379.838451L216.742846,378.642380L235.280398,383.372785L259.229673,376.483155L272.025836,366.146664L287.108505,372.681477L287.124299,382.268033L290.836443,382.234994L302.354805,384.536890L332.293342,376.740427L341.084322,374.686202L378.245155,364.950953L380.750069,353.208955L380.864215,352.666555L386.189841,340.787153L386.490338,336.476499L378.309848,294.004150L365.037315,294.966986L364.498512,281.479126L356.018000,279.069574L343.418829,275.148083L341.354455,274.684871L341.334890,274.713016L331.468177,281.001718L326.199953,300.703980L318.800352,311.582591L313.069051,310.804278L280.750019,298.624246L276.843615,304.834456L247.583160,323.433872L223.063930,320.279053Z " data-constituency="Warren Park" data-province="Harare"/><path d="M321.101342,148.522190L310.081445,145.873131L279.270744,110.464352L235.582577,90.911075L227.754139,174.885282L227.360802,186.118979L154.342775,204.727269L171.701306,234.023453L170.882420,236.138945L202.138313,241.953422L215.609703,251.170119L211.814445,265.916081L217.349644,272.481647L219.447396,281.802399L221.907279,293.451364L223.810202,315.461579L223.063930,320.279053L247.583160,323.433872L276.843615,304.834456L280.750019,298.624246L313.069051,310.804278L318.800352,311.582591L326.199953,300.703980L331.468177,281.001718L341.334890,274.713016L341.354455,274.684871L342.781278,272.632284L355.654243,250.805933L357.330813,228.787029L368.349228,232.130404L384.607867,243.249137L388.458639,242.520578L388.297373,233.573353L379.567881,205.427541L368.991804,152.661709L321.101342,148.522190Z " data-constituency="Harare West" data-province="Harare"/><path d="M324.023851,433.842538L325.529632,433.077721L333.168214,429.082876L343.840429,428.533510L357.499384,408.089098L361.925426,412.970297L370.652936,418.698466L371.826417,416.083305L376.808682,417.147692L378.018288,413.275782L379.612289,405.791675L373.345714,390.714100L386.304854,379.639110L383.256240,376.069359L380.823620,370.475677L378.815420,367.448008L378.245155,364.950953L341.084322,374.686202L332.293342,376.740427L302.354805,384.536890L290.836443,382.234994L287.124299,382.268033L284.654614,383.933542L279.376746,390.958222L255.853575,400.086792L246.831590,409.253269L235.148936,412.055342L224.435939,415.956006L223.966285,416.208835L228.386388,429.756611L228.937124,432.227326L229.617372,435.279053L229.603292,435.517536L230.727970,438.393595L244.044153,432.538708L323.505451,429.723903L324.010352,432.688790L324.023851,433.842538Z " data-constituency="Southerton" data-province="Harare"/><path d="M293.465297,695.782171L287.857875,695.345790L304.197806,718.927999L317.778799,725.548963L325.527928,720.700083L341.880742,731.067439L357.528984,735.684131L359.980805,746.119931L375.142520,759.894341L384.821253,762.040544L385.368697,764.348733L399.235589,762.591368L403.993690,759.526838L408.903500,753.641648L409.419987,752.864664L408.148743,750.784758L400.026344,743.958344L396.857401,740.809510L409.095994,706.418546L424.107051,681.825872L417.816014,671.201431L410.008824,667.451892L398.112076,684.464205L389.932063,684.230218L379.706632,700.756495L360.692859,700.164012L339.272054,680.318493L339.305332,680.053783L335.920503,685.741835L334.966644,698.762774L327.919704,700.533633L315.036773,694.743742L309.278389,689.314959L297.925161,692.284600L293.465297,695.782171Z " data-constituency="Zengeza West" data-province="Harare"/><path d="M401.138708,650.566132L370.742360,662.240696L357.478710,661.921286L339.613086,677.605769L339.305332,680.053783L339.272054,680.318493L360.692859,700.164012L379.706632,700.756495L389.932063,684.230218L398.112076,684.464205L410.008824,667.451892L407.165030,666.044361L401.275940,657.630880L401.690733,650.606691L401.138708,650.566132Z M392.236500,680.957878L392.259116,680.924027L392.259664,680.924984L392.236500,680.957878Z " data-constituency="St Marys" data-province="Harare"/><path d="M447.393673,299.400249L438.168160,307.275255L421.053859,314.045130L419.538848,304.720689L401.384243,309.685150L397.696419,289.612903L378.309848,294.004150L386.490338,336.476499L386.189841,340.787153L380.864215,352.666555L380.750069,353.208955L378.245155,364.950953L378.815420,367.448008L380.823620,370.475677L385.260186,369.987627L394.679011,363.461640L398.280191,353.152176L399.982746,357.973050L402.171125,363.993749L404.837835,370.320197L406.858490,379.664957L412.801374,394.216172L416.397269,400.709138L425.844927,425.531268L437.917065,422.921065L439.936376,423.412932L475.579990,403.698724L487.568767,384.168350L491.894822,378.190297L490.531660,378.384203L492.956108,358.935580L497.683907,361.669884L502.438031,351.712116L495.989909,341.629320L481.844153,326.633518L478.519043,320.749508L446.605731,310.354825L447.393673,299.400249Z " data-constituency="Harare Central" data-province="Harare"/><path d="M224.435939,415.956006L235.148936,412.055342L246.831590,409.253269L255.853575,400.086792L279.376746,390.958222L284.654614,383.933542L287.124299,382.268033L287.108505,372.681477L272.025836,366.146664L259.229673,376.483155L235.280398,383.372785L216.742846,378.642380L215.074565,379.838451L213.315306,380.834967L189.544300,394.563100L172.511078,402.752021L171.682730,405.129975L172.617527,407.996936L173.573044,407.295819L177.032906,409.658487L204.291592,406.863122L216.896148,417.296850L223.935286,416.045046L224.435939,415.956006Z " data-constituency="Kambuzuma" data-province="Harare"/><path d="M230.727970,438.393595L231.290173,443.110756L234.342464,452.800415L235.317383,452.845922L235.450989,453.339478L235.488652,467.938787L243.064634,468.166990L251.345855,473.650853L240.700027,497.095952L241.280787,498.079975L241.629188,497.823435L258.848912,495.527389L261.182260,488.404998L272.469897,488.170672L273.817447,487.439224L274.606793,486.531606L281.023641,478.983684L275.309644,470.451749L275.927732,449.901905L274.409789,447.917489L302.004606,439.306919L324.023851,433.842538L324.010352,432.688790L323.505451,429.723903L244.044153,432.538708L230.727970,438.393595Z " data-constituency="Highfield West" data-province="Harare"/><path d="M533.802319,461.252958L521.148865,448.845158L526.423662,431.488913L530.081589,430.864745L534.364069,427.588693L545.578552,414.292130L545.073082,414.135765L533.345856,410.689720L543.802079,408.440198L543.460462,407.570096L554.001754,403.675057L558.101936,392.646199L525.128866,377.266298L495.808961,378.727662L491.894822,378.190297L487.568767,384.168350L475.579990,403.698724L439.936376,423.412932L437.917065,422.921065L425.844927,425.531268L420.897678,425.788432L420.706576,433.510556L416.322463,436.499374L385.185484,438.465370L384.971896,429.976533L359.881741,429.588609L344.366813,429.566090L336.236022,443.909280L316.498057,466.558784L312.341115,474.375213L303.323212,478.916500L299.105424,496.921243L295.769072,500.773321L294.238691,502.917130L285.757194,509.454800L280.586446,517.973704L268.775616,529.094663L248.675447,526.866728L245.926527,530.208726L247.326822,533.272483L253.733201,540.436632L278.647837,526.152523L288.694482,532.707265L291.228542,527.045345L301.293537,527.395712L314.421335,552.853866L362.917709,530.361925L356.924715,502.763153L357.994929,500.988016L502.621216,462.417157L519.084987,469.421236L526.016884,461.787840L533.894492,461.343337L533.802319,461.252958Z " data-constituency="Hatfield" data-province="Harare"/><path d="M675.033178,181.786020L660.365789,182.386370L650.793245,173.281128L644.735723,178.281021L621.853130,185.914084L595.588953,189.569814L593.328616,196.860590L580.575246,209.971424L569.260891,201.663239L543.482112,218.637169L536.057166,214.053738L534.459545,203.583106L516.139258,209.758515L509.699795,215.501668L501.294309,213.344913L487.231852,221.440964L479.124661,225.057474L479.028297,225.100459L453.195044,247.888723L458.127390,261.828717L447.470662,299.106581L447.393673,299.400249L446.605731,310.354825L478.519043,320.749508L481.844153,326.633518L495.989909,341.629320L502.438031,351.712116L497.683907,361.669884L492.956108,358.935580L490.531660,378.384203L491.894822,378.190297L495.808961,378.727662L525.128866,377.266298L558.101936,392.646199L554.001754,403.675057L543.460462,407.570096L543.802079,408.440198L548.824980,407.359452L618.569258,392.344102L638.818660,358.314519L648.863029,335.834499L656.252168,324.907080L667.897581,334.545367L668.115265,334.009547L682.359912,338.854620L692.414451,345.338088L705.342255,342.491015L706.119831,340.995945L700.811444,318.541719L681.399590,320.149986L693.659719,304.842645L668.420983,290.632066L662.652214,289.140695L699.421108,263.428659L687.585408,241.494265L681.865930,226.774836L678.590908,209.592846L675.033178,181.786020Z " data-constituency="Harare East" data-province="Harare"/><path d="M469.562816,118.191906L477.177194,123.437478L477.546956,135.993758L488.792943,140.624953L473.132846,151.805116L475.721474,175.329059L487.099462,179.047008L481.903057,187.054306L487.493709,190.868220L488.790991,208.138996L478.565514,210.953901L479.124661,225.057474L487.231852,221.440964L501.294309,213.344913L509.699795,215.501668L516.139258,209.758515L534.459545,203.583106L536.057166,214.053738L543.482112,218.637169L569.260891,201.663239L580.575246,209.971424L593.328616,196.860590L595.588953,189.569814L621.853130,185.914084L644.735723,178.281021L650.793245,173.281128L660.365789,182.386370L675.033178,181.786020L674.572369,180.126836L674.644647,173.770358L686.389015,159.476138L686.493497,132.898803L701.813519,126.311497L686.141871,96.425820L679.908701,109.946757L666.546860,82.284797L654.754032,65.712971L636.959722,70.518969L621.434024,63.201968L608.901649,79.156532L603.954179,74.455191L612.939383,64.183331L599.648331,57.604371L597.942569,46.859764L591.984086,42.862405L586.127485,49.234671L593.236846,62.183075L592.995155,72.906626L574.492817,66.627687L576.682004,55.925353L546.614286,53.451739L535.654198,57.896170L541.467287,31.749759L538.413506,24.400231L536.597177,4.672205L511.697503,0.066332L481.942202,15.901885L479.529716,30.250484L469.448775,30.634149L459.620986,45.044964L469.229121,115.736384L469.562816,118.191906Z " data-constituency="Harare North" data-province="Harare"/><path d="M273.817447,487.439224L294.428608,500.235502L295.769072,500.773321L299.105424,496.921243L303.323212,478.916500L312.341115,474.375213L316.498057,466.558784L336.236022,443.909280L344.366813,429.566090L344.490742,429.347462L343.840429,428.533510L333.168214,429.082876L325.529632,433.077721L324.023851,433.842538L302.004606,439.306919L274.409789,447.917489L275.927732,449.901905L275.309644,470.451749L281.023641,478.983684L274.606793,486.531606L273.817447,487.439224Z " data-constituency="Highfield East" data-province="Harare"/><path d="M385.475508,764.827867L389.167959,779.691512L401.145984,788.317130L406.301641,798.517508L408.897558,793.100414L421.624327,792.106615L465.229252,761.061553L475.570876,766.498867L496.621449,762.808866L511.385584,748.200682L521.405973,739.127563L506.214276,733.367906L503.441930,739.724337L490.605540,751.394143L477.695313,735.275728L451.729174,743.374341L447.256834,748.671069L414.779406,762.262773L409.419987,752.864664L408.903500,753.641648L403.993690,759.526838L399.235589,762.591368L385.368697,764.348733L385.475508,764.827867Z " data-constituency="Chitungwiza South" data-province="Harare"/><path d="M170.088220,236.021879L147.082698,231.544059L119.758323,238.357213L116.726801,270.495707L128.178266,281.005303L104.318877,301.802547L108.788046,311.870184L112.450026,321.974757L129.904542,317.822373L169.013287,315.815101L169.228684,311.759877L207.399272,283.068614L211.814445,265.916081L215.609703,251.170119L207.435589,246.128995L202.138313,241.953422L170.882420,236.138945L170.088220,236.021879Z " data-constituency="Dzivarasekwa" data-province="Harare"/><path d="M172.617527,407.996936L170.697568,409.405702L165.054115,408.621536L164.962275,401.291420L174.039846,389.604669L178.805427,388.590370L182.382285,376.478589L173.411227,371.643056L166.191575,372.984739L138.118028,372.460748L133.190086,372.289000L130.173551,372.183828L121.398176,372.253913L121.514788,373.170749L128.093988,414.983455L125.002602,419.829626L123.562765,422.110260L154.121940,430.573481L159.537321,429.567509L188.530518,431.173528L205.354658,438.528378L225.112789,433.725851L228.937124,432.227326L228.386388,429.756611L223.966285,416.208835L224.435939,415.956006L223.959495,416.080902L223.935286,416.045046L216.896148,417.296850L204.291592,406.863122L177.032906,409.658487L173.573044,407.295819L172.617527,407.996936Z " data-constituency="Mufakose" data-province="Harare"/></g></svg>